<svg width="789" height="90" viewBox="0 0 789 90" fill="none" xmlns="http://www.w3.org/2000/svg">
<path fill-rule="evenodd" clip-rule="evenodd" d="M507.425 -479C597.56 -478.996 689.577 -450.965 744.327 -379.456C797.962 -309.402 795.96 -215.445 774.756 -129.838C754.124 -46.5397 710.809 33.2492 633.058 69.7672C556.044 105.939 468.121 86.6235 391.167 50.325C313.312 13.6012 242.977 -42.399 219.731 -125.197C195.149 -212.751 213.099 -308.891 270.497 -379.477C327.322 -449.361 417.284 -479.004 507.425 -479Z" fill="#B7E6DD"/>
<path fill-rule="evenodd" clip-rule="evenodd" d="M440.908 -534.633C490.831 -529.682 523.927 -481.096 558.995 -445.018C587.042 -416.163 599.552 -377.54 624.399 -345.856C654.411 -307.586 716.543 -287.902 720.319 -239.308C724.02 -191.681 668.427 -162.21 641.742 -122.689C617.215 -86.3629 599.789 -47.0753 569.301 -15.6448C530.846 23.9998 495.252 93.3132 440.908 84.3566C382.669 74.758 379.984 -16.2341 334.71 -54.3087C300.285 -83.2595 245.544 -75.7803 213.242 -107.108C176.971 -142.285 150.22 -189.024 143.959 -239.308C137.401 -291.981 146.971 -348.994 177.756 -392.113C207.809 -434.206 263.198 -445.288 308.562 -469.857C352.508 -493.657 391.237 -539.56 440.908 -534.633Z" fill="#CFEFE8"/>
<path fill-rule="evenodd" clip-rule="evenodd" d="M242.456 -414.632C295.814 -417.765 352.234 -400.902 390.224 -363.264C426.112 -327.708 413.991 -268.073 436.202 -222.681C464.415 -165.021 540.927 -128.027 536.673 -63.9626C532.427 -0.0126038 475.068 54.6052 416.129 79.6336C361.184 102.966 302.02 64.7545 242.456 60.9757C188.439 57.5489 129.911 87.3791 84.0718 58.5681C37.6596 29.397 24.308 -31.1685 11.1285 -84.4185C-1.21574 -134.294 -6.14123 -186.529 11.4635 -234.796C28.6721 -281.976 67.1592 -315.788 106.765 -346.623C147.696 -378.489 190.693 -411.594 242.456 -414.632Z" fill="#E7F7F4"/>
</svg>
